<?xml version="1.0" encoding="UTF-8" standalone="no"?>
<svg
   xmlns:dc="http://purl.org/dc/elements/1.1/"
   xmlns:cc="http://creativecommons.org/ns#"
   xmlns:rdf="http://www.w3.org/1999/02/22-rdf-syntax-ns#"
   xmlns:svg="http://www.w3.org/2000/svg"
   xmlns="http://www.w3.org/2000/svg"
   xmlns:sodipodi="http://sodipodi.sourceforge.net/DTD/sodipodi-0.dtd"
   xmlns:inkscape="http://www.inkscape.org/namespaces/inkscape"
   width="3000pt"
   height="3000pt"
   viewBox="0 0 3000 3000"
   version="1.1"
   id="svg2"
   inkscape:version="0.48.4 r9939"
   sodipodi:docname="sad.svg">
  <metadata
     id="metadata45">
    <rdf:RDF>
      <cc:Work
         rdf:about="">
        <dc:format>image/svg+xml</dc:format>
        <dc:type
           rdf:resource="http://purl.org/dc/dcmitype/StillImage" />
        <dc:title></dc:title>
      </cc:Work>
    </rdf:RDF>
  </metadata>
  <defs
     id="defs43" />
  <sodipodi:namedview
     pagecolor="#ffffff"
     bordercolor="#666666"
     borderopacity="1"
     objecttolerance="10"
     gridtolerance="10"
     guidetolerance="10"
     inkscape:pageopacity="0"
     inkscape:pageshadow="2"
     inkscape:window-width="1600"
     inkscape:window-height="837"
     id="namedview41"
     showgrid="false"
     inkscape:zoom="0.12897628"
     inkscape:cx="-154.58484"
     inkscape:cy="1707.5371"
     inkscape:window-x="-8"
     inkscape:window-y="-8"
     inkscape:window-maximized="1"
     inkscape:current-layer="svg2" />
  <path
     inkscape:connector-curvature="0"
     id="path7"
     d="m 1520.8828,2453.2265 c -502.6875,0 -910.31249,244.2656 -915.91405,546.7735 l 1832.15625,0 c -5.5781,-302.5079 -413.5781,-546.7735 -916.2422,-546.7735 z m 0,0"
     style="fill:#ffffff;fill-opacity:1;fill-rule:nonzero;stroke:none" />
  <path
     inkscape:connector-curvature="0"
     id="path9"
     d="m 2417.0625,1347.3515 c 0,305.3906 -410.3437,552.961 -916.5,552.961 -506.15625,0 -916.47656,-247.5704 -916.47656,-552.961 0,-305.3906 410.32031,-552.96093 916.47656,-552.96093 506.1563,0 916.5,247.57033 916.5,552.96093 z m 0,0"
     style="fill:#ffffff;fill-opacity:1;fill-rule:nonzero;stroke:none" />
  <path
     inkscape:connector-curvature="0"
     id="path11"
     d="m 1813.4766,893.5312 c 14.1328,1.21875 28.1953,3.96094 42.8437,7.71094 148.5938,37.99218 275.5547,201.91406 310.9219,401.36716 10.3828,58.6407 11.2734,147.8907 1.8281,200.6719 -23.9765,133.9453 -93.3281,232.1016 -190.0547,269.5313 -39.6093,15.3281 -98.0625,19.4765 -140.2734,9.8906 -100.6875,-22.875 -200.6484,-111.7969 -261.4688,-232.9219 -29.5781,-58.875 -58.8046,-155.1094 -58.5937,-192.6094 -4.4063,-27.0468 -4.8984,-30.0703 -7.3359,-69.2109 -3.7266,-13.8984 1.8984,-87.75 13.5468,-138.0703 25.4532,-109.6641 85.1485,-193.42971 165.1641,-232.1719 40.5469,-19.64063 81.0469,-27.77344 123.4219,-24.1875 z m 0,0"
     style="fill:#000000;fill-opacity:1;fill-rule:nonzero;stroke:none" />
  <path
     inkscape:connector-curvature="0"
     id="path13"
     d="m 1435.5469,429.18745 c -191.9063,3.11719 -378.7969,60.58594 -526.96878,163.33594 -211.89843,146.92968 -352.125,372.72656 -411.25781,663.21091 -2.71875,13.3594 -6.1875,31.7344 -8.0625,40.6407 -1.875,8.9062 -5.71875,31.5937 -8.0625,50.5312 -2.34375,18.9609 -6.35156,50.2734 -9.14062,69.2109 -6.5625,44.4844 -6.60938,206.836 0,247.1954 20.20312,123.4921 42.11718,213.6562 88.61718,364.7578 14.13282,45.914 17.41407,56.9297 24.89063,84.9609 2.08594,7.8047 9.65625,35.1563 16.5,60.7969 44.01562,164.9531 47.85937,278.6484 13.89844,386.3437 -24.86719,78.8438 -64.17188,139.2657 -141.72657,216.4219 -55.57031,55.4531 -118.33593,139.125 -159.28125,223.4063 l 374.25,0 c 9.77344,-22.5938 17.60157,-46.2188 26.36719,-63.7266 56.17969,-112.0781 113.13281,-190.875 193.73438,-268.0781 106.07811,-101.625 225.53911,-162.586 368.03911,-188.2266 39.1406,-7.0547 161.625,-8.2969 200.3203,-1.8281 210.9609,35.2265 391.2656,147.75 535.4062,333.9844 42.5156,54.9375 80.7891,119.5781 115.336,187.875 l 787.7343,0 c -26.5547,-57.5625 -71.7187,-129.6563 -126.2343,-207.2813 -29.9297,-42.6328 -69.6563,-106.9453 -91.2891,-132.5625 -68.7188,-81.4453 -126.5859,-120.7969 -168.2109,-175.8984 -86.5079,-79.9453 -76.2188,-96.5391 -74.2266,-208.9922 36,-179.1563 46.2891,-513.4688 36,-782.7188 3.7969,-78.6093 -0.4922,-119.4843 -4.5,-161.0156 -14.2266,-146.7656 -42.0703,-234.8672 -99.6094,-349.73438 -45.5859,-90.96093 -102.9609,-169.40625 -178.3594,-244.61718 -84.3281,-84.14063 -166.0781,-142.57032 -275.7421,-196.66407 -133.6172,-65.90625 -260.7891,-99.375 -416.0157,-109.5 -27.539,-1.78125 -54.9843,-2.27343 -82.4062,-1.82812 z m 0,0"
     style="fill:#000000;fill-opacity:1;fill-rule:nonzero;stroke:none" />
  <path
     inkscape:connector-curvature="0"
     id="path15"
     d="m 1521.2344,563.22651 c 0,0 -51.4219,1268.55469 -19.0313,1801.75779 178.7578,29.836 260.5782,70.336 438.7032,215.6953 93.2343,76.0547 266.2031,272.6485 332.9062,419.3204 l 502.4297,0 c -46.8516,-72.2813 -139.5469,-212.0157 -161.8594,-238.4063 -28.4765,-33.7266 -67.0078,-78.9844 -85.3359,-100.7109 -58.2188,-69 -145.2656,-167.1797 -180.5391,-213.8672 -37.3359,-36.8906 -33.5859,-62.8594 -32.2265,-112.4297 3.3515,-132.6563 16.3125,-651.6328 26.7421,-868.2891 3.211,-66.6093 3.3985,-93.7031 0,-128.9062 -12.0468,-124.3594 -35.8359,-210.2813 -84.6093,-307.6172 -38.6016,-77.08595 -86.9766,-143.53126 -150.8672,-207.28126 -71.461,-71.29688 -140.7188,-120.79688 -233.6485,-166.61719 -113.2031,-55.82813 -352.664,-92.64844 -352.664,-92.64844 z m 0,0"
     style="fill:#333333;fill-opacity:1;fill-rule:nonzero;stroke:none" />
  <path
     inkscape:connector-curvature="0"
     id="path17"
     d="m 1427.0859,1760.4609 -13.9218,14.8125 c -27.7032,29.3437 -87.3516,49.3594 -179.1094,59.9062 -100.7578,11.6016 -228.8906,5.3204 -290.29689,-14.1796 -30.35156,-9.6329 -38.57812,-7.9922 -45.84375,9.4921 -22.89844,55.2188 24.98438,159.7266 137.55474,300.3047 71.3906,89.1563 177.5156,196.336 243.9375,246.3516 25.8515,19.4766 57.375,34.8516 86.7656,42.3047 23.9062,6.0703 165.5156,4.875 198.9609,-1.6406 11.1563,-2.1797 31.9219,-6.1172 46.1016,-8.8829 77.0859,-14.8828 142.0547,-52.2187 255.8672,-146.789 102.7968,-85.4297 228.8672,-226.0781 262.5468,-292.9453 24.6329,-48.8907 34.8047,-122.5782 20.0157,-145.1485 -8.4844,-12.9375 -12.0469,-13.1484 -44.5782,-2.789 -31.5468,10.0312 -139.0546,20.25 -211.8984,20.25 -30.1641,0 -78.8437,-2.8125 -108.3047,-6.3282 -85.7578,-10.1953 -135.0937,-27.7734 -164.0156,-58.5 l -15.1875,-16.2187 z m 36.8672,32.4141 c 22.336,0 34.8516,29.0859 26.2032,61.1718 -14.8125,55.0313 -50.6954,81.6563 -72.5625,53.836 -23.9766,-30.4688 10.0781,-115.0078 46.3593,-115.0078 z m 84.8438,0 c 24.914,0 54.8437,47.3906 54.8437,86.7656 0,33.9375 -25.7812,49.5703 -50.1562,30.3984 -20.086,-15.7969 -37.7578,-62.5547 -33.0469,-87.6562 3.1875,-17.0625 15.1875,-29.5078 28.3594,-29.5078 z m 0,0"
     style="fill:#eecc00;fill-opacity:1;fill-rule:nonzero;stroke:none" />
  <path
     inkscape:connector-curvature="0"
     id="path19"
     d="m 1214.0156,1072.9687 c 35.1797,-3 68.8125,3.7734 102.4922,20.0625 66.375,32.1328 115.8047,101.7656 136.875,192.5391 14.2735,71.2265 9.3281,172.125 3.6328,189.164 -7.6172,58.0782 -40.664,141.375 -77.5547,195.586 -50.2968,73.9453 -120.914,126.914 -188.2734,141.1172 -60.0469,12.6562 -116.4141,0.2812 -164.8359,-36.1875 -72.89066,-54.9141 -113.13285,-153.0235 -113.15629,-275.25 -0.0234,-198.4688 115.85159,-382.5235 264.91409,-420.6563 12.1875,-3.1172 24.164,-5.3906 35.9062,-6.375 z m 0,0"
     style="fill:#ffffff;fill-opacity:1;fill-rule:nonzero;stroke:none" />
  <path
     inkscape:connector-curvature="0"
     id="path21"
     d="m 1794.7031,1072.9687 c -35.2031,-3 -68.8359,3.7734 -102.5156,20.0625 -66.375,32.1328 -115.8047,101.7656 -136.8516,192.5391 -14.2734,71.2265 -9.3281,172.125 -3.6562,189.164 7.6406,58.0782 40.6875,141.375 77.5547,195.586 50.2969,73.9453 120.9375,126.914 188.2734,141.1172 60.0703,12.6562 116.4375,0.2812 164.8594,-36.1875 72.8672,-54.9141 113.1094,-153.0235 113.1328,-275.25 0.047,-198.4688 -115.8516,-382.5235 -264.9141,-420.6563 -12.164,-3.1172 -24.164,-5.3906 -35.8828,-6.375 z m 0,0"
     style="fill:#ffffff;fill-opacity:1;fill-rule:nonzero;stroke:none" />
  <path
     inkscape:connector-curvature="0"
     id="path23"
     d="m 1418.5078,1538.8125 c 0,100.9687 -75.1875,182.8125 -167.9062,182.8125 -92.7422,0 -167.9063,-81.8438 -167.9063,-182.8125 0,-100.9922 75.1641,-182.836 167.9063,-182.836 92.7187,0 167.9062,81.8438 167.9062,182.836 z m 0,0"
     style="fill:#000000;fill-opacity:1;fill-rule:nonzero;stroke:none" />
  <path
     inkscape:connector-curvature="0"
     id="path25"
     d="m 1379.25,1467.2109 c 0,44.25 -32.9531,80.1094 -73.5703,80.1094 -40.6406,0 -73.5703,-35.8594 -73.5703,-80.1094 0,-44.25 32.9297,-80.1094 73.5703,-80.1094 40.6172,0 73.5703,35.8594 73.5703,80.1094 z m 0,0"
     style="fill:#ffffff;fill-opacity:1;fill-rule:nonzero;stroke:none" />
  <path
     inkscape:connector-curvature="0"
     id="path27"
     d="m 1922.1797,1530.3046 c 0,100.9688 -75.1641,182.836 -167.9063,182.836 -92.7421,0 -167.9062,-81.8672 -167.9062,-182.836 0,-100.9687 75.1641,-182.8359 167.9062,-182.8359 92.7422,0 167.9063,81.8672 167.9063,182.8359 z m 0,0"
     style="fill:#000000;fill-opacity:1;fill-rule:nonzero;stroke:none" />
  <path
     inkscape:connector-curvature="0"
     id="path29"
     d="m 1885.6875,1457.4843 c 0,44.2266 -32.9297,80.1094 -73.5703,80.1094 -40.6406,0 -73.5703,-35.8828 -73.5703,-80.1094 0,-44.25 32.9297,-80.1328 73.5703,-80.1328 40.6406,0 73.5703,35.8828 73.5703,80.1328 z m 0,0"
     style="fill:#ffffff;fill-opacity:1;fill-rule:nonzero;stroke:none" />
  <path
     inkscape:connector-curvature="0"
     id="path31"
     d="m 988.19531,962.32026 c 37.38279,-23.22656 78.56249,-34.73437 125.17969,-35.67187 91.8984,-1.85157 186.1641,47.53125 260.8594,136.42971 56.1328,71.0156 107.6953,185.8594 111.0234,208.0312 -313.9453,47.1797 -354.9375,46.2891 -589.66405,335.5313 -112.24219,-220.3828 -87.63281,-490.3125 56.36719,-616.94534 11.74218,-10.33594 23.76562,-19.64062 36.23437,-27.375 z m 0,0"
     style="fill:#333333;fill-opacity:1;fill-rule:nonzero;stroke:none" />
  <path
     inkscape:connector-curvature="0"
     id="path33"
     d="m 2007.8203,967.19526 c -37.3828,-23.22656 -78.5625,-34.73437 -125.1797,-35.67187 -91.875,-1.85157 -186.164,47.53125 -260.8593,136.42971 -56.1094,71.0156 -107.6719,185.8594 -111.0235,208.0312 313.9453,47.1797 354.9375,46.2891 589.6641,335.5313 112.2656,-220.4063 87.6328,-490.3125 -56.3438,-616.94534 -11.7656,-10.33594 -23.789,-19.64062 -36.2578,-27.375 z m 0,0"
     style="fill:#000000;fill-opacity:1;fill-rule:nonzero;stroke:none" />
  <path
     inkscape:connector-curvature="0"
     id="path35"
     d="m 1959.2343,2225.8827 c 0,109.1013 -44.2968,197.6717 -98.8359,197.6717 -54.5625,0 -98.8359,-88.5704 -98.8359,-197.6717 0,-109.125 81.5625,-234.9844 102.5625,-466.2187 4.1953,233.1093 95.1093,357.0937 95.1093,466.2187 z m 0,0"
     style="fill:#00ccff;fill-opacity:1;fill-rule:nonzero;stroke:none;stroke-width:7.96299601000000030;stroke-linecap:butt;stroke-linejoin:round;stroke-miterlimit:4;stroke-opacity:1" />
  <path
     inkscape:connector-curvature="0"
     id="path37"
     d="m 1929.1406,2164.5234 c 0,50.5078 -21.0703,98.2734 -46.3359,98.2734 -25.2656,0 -45.75,-40.9922 -45.75,-91.5 0,-50.5312 34.9453,-99.75 44.6484,-206.789 24.5625,133.3359 48,137.625 47.4375,200.0156 z m 0,0"
     style="fill:#ffffff;fill-opacity:1;fill-rule:nonzero;stroke:none" />
  <path
     inkscape:connector-curvature="0"
     id="path39"
     d="m 1629.2344,1670.3203 c 50.2969,73.9453 120.9375,126.914 188.2734,141.1172 60.0703,12.6562 116.4375,0.2812 164.8594,-36.1875 36.4219,-27.4454 64.7109,-65.7188 83.8828,-112.3829 -111.7734,63.4922 -260.3203,60.7969 -437.0156,7.4532 z m 0,0"
     style="fill:#00ccff;fill-opacity:1;fill-rule:nonzero;stroke:none" />
</svg>
